<mxfile host="app.diagrams.net" modified="2023-12-02T21:27:58.502Z" agent="Mozilla/5.0 (X11; Ubuntu; Linux x86_64; rv:109.0) Gecko/20100101 Firefox/118.0" etag="CwXn0llJYOIS_6RvIune" version="22.1.5" type="device">
  <diagram name="Page-1" id="X2eaiPa041BrP36yoekb">
    <mxGraphModel dx="1865" dy="1668" grid="1" gridSize="10" guides="1" tooltips="1" connect="1" arrows="1" fold="1" page="1" pageScale="1" pageWidth="850" pageHeight="1100" math="0" shadow="0">
      <root>
        <mxCell id="0" />
        <mxCell id="1" parent="0" />
        <mxCell id="rg_FPXK4xJHgQXE_X73f-1" value="&lt;font style=&quot;font-size: 20px;&quot;&gt;MATFHub&lt;/font&gt;" style="rounded=0;whiteSpace=wrap;html=1;horizontal=1;verticalAlign=top;" parent="1" vertex="1">
          <mxGeometry x="40" y="-40" width="1830" height="1110" as="geometry" />
        </mxCell>
        <mxCell id="rg_FPXK4xJHgQXE_X73f-2" value="Korisnik&lt;br&gt;(Student)" style="shape=umlActor;verticalLabelPosition=bottom;verticalAlign=top;html=1;outlineConnect=0;" parent="1" vertex="1">
          <mxGeometry x="-10" y="420" width="50" height="100" as="geometry" />
        </mxCell>
        <mxCell id="rg_FPXK4xJHgQXE_X73f-15" value="" style="endArrow=none;html=1;rounded=0;entryX=0;entryY=1;entryDx=0;entryDy=0;exitX=0.5;exitY=0.5;exitDx=0;exitDy=0;exitPerimeter=0;" parent="1" source="rg_FPXK4xJHgQXE_X73f-2" target="nwaX_-txKHDEU03HYDia-13" edge="1">
          <mxGeometry width="50" height="50" relative="1" as="geometry">
            <mxPoint x="110" y="438.69" as="sourcePoint" />
            <mxPoint x="177.57359312880726" y="188.28427124746167" as="targetPoint" />
            <Array as="points" />
          </mxGeometry>
        </mxCell>
        <mxCell id="rg_FPXK4xJHgQXE_X73f-25" value="Eksterno čuvanje istorije računanja" style="ellipse;whiteSpace=wrap;html=1;" parent="1" vertex="1">
          <mxGeometry x="1550" y="200" width="140" height="70" as="geometry" />
        </mxCell>
        <mxCell id="rg_FPXK4xJHgQXE_X73f-26" value="&amp;lt;&amp;lt;extends&amp;gt;&amp;gt;" style="endArrow=open;endSize=12;dashed=1;html=1;rounded=0;entryX=1;entryY=1;entryDx=0;entryDy=0;exitX=0.5;exitY=0;exitDx=0;exitDy=0;" parent="1" source="rg_FPXK4xJHgQXE_X73f-25" target="nwaX_-txKHDEU03HYDia-17" edge="1">
          <mxGeometry width="160" relative="1" as="geometry">
            <mxPoint x="1270" y="590" as="sourcePoint" />
            <mxPoint x="1430" y="160" as="targetPoint" />
            <Array as="points" />
          </mxGeometry>
        </mxCell>
        <mxCell id="W9EnXdyNnunVsKaJYrJe-1" value="&amp;lt;&amp;lt;extends&amp;gt;&amp;gt;" style="endArrow=open;endSize=12;dashed=1;html=1;rounded=0;entryX=0.621;entryY=0.971;entryDx=0;entryDy=0;entryPerimeter=0;exitX=0.5;exitY=0;exitDx=0;exitDy=0;" parent="1" source="W9EnXdyNnunVsKaJYrJe-2" target="nwaX_-txKHDEU03HYDia-17" edge="1">
          <mxGeometry width="160" relative="1" as="geometry">
            <mxPoint x="1452" y="320" as="sourcePoint" />
            <mxPoint x="1412.4264068711927" y="188.28427124746167" as="targetPoint" />
            <Array as="points" />
          </mxGeometry>
        </mxCell>
        <mxCell id="W9EnXdyNnunVsKaJYrJe-2" value="Učitavanje eksterne istorije računanja" style="ellipse;whiteSpace=wrap;html=1;" parent="1" vertex="1">
          <mxGeometry x="1390" y="200" width="140" height="70" as="geometry" />
        </mxCell>
        <mxCell id="W9EnXdyNnunVsKaJYrJe-4" value="Izračunavanje i prikaz rezultata" style="ellipse;whiteSpace=wrap;html=1;" parent="1" vertex="1">
          <mxGeometry x="1230" y="340" width="140" height="70" as="geometry" />
        </mxCell>
        <mxCell id="W9EnXdyNnunVsKaJYrJe-6" value="Unos podataka za računanje" style="ellipse;whiteSpace=wrap;html=1;" parent="1" vertex="1">
          <mxGeometry x="1230" y="200" width="140" height="70" as="geometry" />
        </mxCell>
        <mxCell id="W9EnXdyNnunVsKaJYrJe-8" value="&amp;lt;&amp;lt;include&amp;gt;&amp;gt;" style="endArrow=open;endSize=12;dashed=1;html=1;rounded=0;exitX=0.5;exitY=1;exitDx=0;exitDy=0;entryX=0.5;entryY=0;entryDx=0;entryDy=0;" parent="1" source="W9EnXdyNnunVsKaJYrJe-6" target="W9EnXdyNnunVsKaJYrJe-4" edge="1">
          <mxGeometry width="160" relative="1" as="geometry">
            <mxPoint x="1328.04" y="400" as="sourcePoint" />
            <mxPoint x="1390.14615362925" y="540.7970642778782" as="targetPoint" />
          </mxGeometry>
        </mxCell>
        <mxCell id="W9EnXdyNnunVsKaJYrJe-9" value="&amp;lt;&amp;lt;include&amp;gt;&amp;gt;" style="endArrow=open;endSize=12;dashed=1;html=1;rounded=0;entryX=0.436;entryY=-0.029;entryDx=0;entryDy=0;entryPerimeter=0;" parent="1" source="nwaX_-txKHDEU03HYDia-17" target="W9EnXdyNnunVsKaJYrJe-6" edge="1">
          <mxGeometry width="160" relative="1" as="geometry">
            <mxPoint x="1391" y="196" as="sourcePoint" />
            <mxPoint x="1267" y="350" as="targetPoint" />
          </mxGeometry>
        </mxCell>
        <mxCell id="nwaX_-txKHDEU03HYDia-4" value="" style="endArrow=none;html=1;rounded=0;exitX=0.5;exitY=0.5;exitDx=0;exitDy=0;exitPerimeter=0;entryX=0;entryY=0;entryDx=0;entryDy=0;" parent="1" source="rg_FPXK4xJHgQXE_X73f-2" target="nwaX_-txKHDEU03HYDia-12" edge="1">
          <mxGeometry width="50" height="50" relative="1" as="geometry">
            <mxPoint x="220" y="350" as="sourcePoint" />
            <mxPoint x="337.57359312880726" y="188.2842712474619" as="targetPoint" />
          </mxGeometry>
        </mxCell>
        <mxCell id="nwaX_-txKHDEU03HYDia-5" value="" style="endArrow=none;html=1;rounded=0;exitX=0.5;exitY=0.5;exitDx=0;exitDy=0;exitPerimeter=0;entryX=0;entryY=1;entryDx=0;entryDy=0;" parent="1" source="rg_FPXK4xJHgQXE_X73f-2" target="nwaX_-txKHDEU03HYDia-9" edge="1">
          <mxGeometry width="50" height="50" relative="1" as="geometry">
            <mxPoint x="380" y="450" as="sourcePoint" />
            <mxPoint x="687.5735931288073" y="188.28427124746167" as="targetPoint" />
          </mxGeometry>
        </mxCell>
        <mxCell id="nwaX_-txKHDEU03HYDia-6" value="" style="endArrow=none;html=1;rounded=0;exitX=0.5;exitY=0.5;exitDx=0;exitDy=0;exitPerimeter=0;entryX=0;entryY=1;entryDx=0;entryDy=0;" parent="1" source="rg_FPXK4xJHgQXE_X73f-2" target="nwaX_-txKHDEU03HYDia-17" edge="1">
          <mxGeometry width="50" height="50" relative="1" as="geometry">
            <mxPoint x="310" y="500" as="sourcePoint" />
            <mxPoint x="1310" y="160" as="targetPoint" />
          </mxGeometry>
        </mxCell>
        <mxCell id="nwaX_-txKHDEU03HYDia-9" value="Izmena file sistemom" style="ellipse;whiteSpace=wrap;html=1;" parent="1" vertex="1">
          <mxGeometry x="460" y="30" width="140" height="70" as="geometry" />
        </mxCell>
        <mxCell id="nwaX_-txKHDEU03HYDia-10" value="Pisanje beleški" style="ellipse;whiteSpace=wrap;html=1;" parent="1" vertex="1">
          <mxGeometry x="110" y="630" width="140" height="70" as="geometry" />
        </mxCell>
        <mxCell id="nwaX_-txKHDEU03HYDia-12" value="Generisanje rasporeda časova" style="ellipse;whiteSpace=wrap;html=1;" parent="1" vertex="1">
          <mxGeometry x="380" y="630" width="140" height="70" as="geometry" />
        </mxCell>
        <mxCell id="nwaX_-txKHDEU03HYDia-13" value="Pregled file sistema" style="ellipse;whiteSpace=wrap;html=1;" parent="1" vertex="1">
          <mxGeometry x="130" y="30" width="140" height="70" as="geometry" />
        </mxCell>
        <mxCell id="nwaX_-txKHDEU03HYDia-14" value="" style="endArrow=none;html=1;rounded=0;exitX=0.5;exitY=0.5;exitDx=0;exitDy=0;exitPerimeter=0;entryX=0;entryY=0;entryDx=0;entryDy=0;" parent="1" source="rg_FPXK4xJHgQXE_X73f-2" target="nwaX_-txKHDEU03HYDia-10" edge="1">
          <mxGeometry width="50" height="50" relative="1" as="geometry">
            <mxPoint x="1020" y="610" as="sourcePoint" />
            <mxPoint x="1070" y="560" as="targetPoint" />
          </mxGeometry>
        </mxCell>
        <mxCell id="nwaX_-txKHDEU03HYDia-15" value="Crtanje grafika" style="ellipse;whiteSpace=wrap;html=1;" parent="1" vertex="1">
          <mxGeometry x="690" y="630" width="140" height="70" as="geometry" />
        </mxCell>
        <mxCell id="nwaX_-txKHDEU03HYDia-16" value="" style="endArrow=none;html=1;rounded=0;exitX=0.5;exitY=0.5;exitDx=0;exitDy=0;exitPerimeter=0;entryX=0;entryY=0;entryDx=0;entryDy=0;" parent="1" source="rg_FPXK4xJHgQXE_X73f-2" target="nwaX_-txKHDEU03HYDia-15" edge="1">
          <mxGeometry width="50" height="50" relative="1" as="geometry">
            <mxPoint x="1020" y="610" as="sourcePoint" />
            <mxPoint x="1070" y="560" as="targetPoint" />
          </mxGeometry>
        </mxCell>
        <mxCell id="nwaX_-txKHDEU03HYDia-17" value="Korišćenje matematičkog kalkulatora" style="ellipse;whiteSpace=wrap;html=1;" parent="1" vertex="1">
          <mxGeometry x="1370" y="30" width="140" height="70" as="geometry" />
        </mxCell>
        <mxCell id="vdd0QRdLTEnMU9PzV12m-6" value="Otvaranje nove datoteke" style="ellipse;whiteSpace=wrap;html=1;" parent="1" vertex="1">
          <mxGeometry x="110" y="750" width="140" height="70" as="geometry" />
        </mxCell>
        <mxCell id="vdd0QRdLTEnMU9PzV12m-7" value="Otvaranje postojeće datoteke" style="ellipse;whiteSpace=wrap;html=1;" parent="1" vertex="1">
          <mxGeometry x="60" y="870" width="140" height="70" as="geometry" />
        </mxCell>
        <mxCell id="vdd0QRdLTEnMU9PzV12m-16" value="&amp;lt;&amp;lt;include&amp;gt;&amp;gt;" style="endArrow=open;endSize=12;dashed=1;html=1;rounded=0;entryX=0.5;entryY=0;entryDx=0;entryDy=0;exitX=1;exitY=1;exitDx=0;exitDy=0;" parent="1" source="vdd0QRdLTEnMU9PzV12m-6" target="vdd0QRdLTEnMU9PzV12m-20" edge="1">
          <mxGeometry width="160" relative="1" as="geometry">
            <mxPoint x="685" y="800" as="sourcePoint" />
            <mxPoint x="580" y="940" as="targetPoint" />
          </mxGeometry>
        </mxCell>
        <mxCell id="vdd0QRdLTEnMU9PzV12m-18" value="" style="endArrow=none;html=1;rounded=0;exitX=0.5;exitY=0;exitDx=0;exitDy=0;entryX=0.5;entryY=1;entryDx=0;entryDy=0;" parent="1" source="vdd0QRdLTEnMU9PzV12m-6" target="nwaX_-txKHDEU03HYDia-10" edge="1">
          <mxGeometry width="50" height="50" relative="1" as="geometry">
            <mxPoint x="290" y="770" as="sourcePoint" />
            <mxPoint x="340" y="720" as="targetPoint" />
          </mxGeometry>
        </mxCell>
        <mxCell id="vdd0QRdLTEnMU9PzV12m-19" value="&amp;lt;&amp;lt;extends&amp;gt;&amp;gt;" style="endArrow=open;endSize=12;dashed=1;html=1;rounded=0;entryX=0;entryY=1;entryDx=0;entryDy=0;exitX=0.5;exitY=0;exitDx=0;exitDy=0;" parent="1" source="vdd0QRdLTEnMU9PzV12m-7" target="vdd0QRdLTEnMU9PzV12m-6" edge="1">
          <mxGeometry x="0.1379" y="-5" width="160" relative="1" as="geometry">
            <mxPoint x="331" y="830.25" as="sourcePoint" />
            <mxPoint x="320" y="890.25" as="targetPoint" />
            <Array as="points" />
            <mxPoint as="offset" />
          </mxGeometry>
        </mxCell>
        <mxCell id="vdd0QRdLTEnMU9PzV12m-20" value="Čuvanje tekstualne datoteke" style="ellipse;whiteSpace=wrap;html=1;" parent="1" vertex="1">
          <mxGeometry x="250" y="870" width="140" height="70" as="geometry" />
        </mxCell>
        <mxCell id="fRmWGoZuoMupIV2Rn89--5" value="&amp;lt;&amp;lt;include&amp;gt;&amp;gt;" style="endArrow=open;endSize=12;dashed=1;html=1;rounded=0;entryX=0.436;entryY=-0.029;entryDx=0;entryDy=0;entryPerimeter=0;" edge="1" parent="1">
          <mxGeometry width="160" relative="1" as="geometry">
            <mxPoint x="745" y="700" as="sourcePoint" />
            <mxPoint x="630" y="802" as="targetPoint" />
          </mxGeometry>
        </mxCell>
        <mxCell id="fRmWGoZuoMupIV2Rn89--6" value="Parsiranje podataka i funkcija" style="ellipse;whiteSpace=wrap;html=1;" vertex="1" parent="1">
          <mxGeometry x="540" y="800" width="150" height="80" as="geometry" />
        </mxCell>
        <mxCell id="fRmWGoZuoMupIV2Rn89--7" value="&amp;lt;&amp;lt;include&amp;gt;&amp;gt;" style="endArrow=open;endSize=12;dashed=1;html=1;rounded=0;exitX=0.5;exitY=1;exitDx=0;exitDy=0;" edge="1" parent="1" source="fRmWGoZuoMupIV2Rn89--6" target="fRmWGoZuoMupIV2Rn89--8">
          <mxGeometry width="160" relative="1" as="geometry">
            <mxPoint x="865" y="880" as="sourcePoint" />
            <mxPoint x="750" y="982" as="targetPoint" />
          </mxGeometry>
        </mxCell>
        <mxCell id="fRmWGoZuoMupIV2Rn89--8" value="&lt;div&gt;Iscrtavanje grafika funkcije&lt;/div&gt;" style="ellipse;whiteSpace=wrap;html=1;" vertex="1" parent="1">
          <mxGeometry x="535" y="980" width="155" height="80" as="geometry" />
        </mxCell>
        <mxCell id="fRmWGoZuoMupIV2Rn89--9" value="Čuvanje i učitavanje istorije računanja" style="ellipse;whiteSpace=wrap;html=1;" vertex="1" parent="1">
          <mxGeometry x="810" y="800" width="140" height="80" as="geometry" />
        </mxCell>
        <mxCell id="fRmWGoZuoMupIV2Rn89--10" value="&amp;lt;&amp;lt;extends&amp;gt;&amp;gt;" style="endArrow=open;endSize=12;dashed=1;html=1;rounded=0;entryX=0.8;entryY=0.957;entryDx=0;entryDy=0;entryPerimeter=0;exitX=0.5;exitY=0;exitDx=0;exitDy=0;" edge="1" parent="1" source="fRmWGoZuoMupIV2Rn89--9" target="nwaX_-txKHDEU03HYDia-15">
          <mxGeometry width="160" relative="1" as="geometry">
            <mxPoint x="881.5" y="750" as="sourcePoint" />
            <mxPoint x="878.5" y="648" as="targetPoint" />
            <Array as="points" />
          </mxGeometry>
        </mxCell>
      </root>
    </mxGraphModel>
  </diagram>
</mxfile>
